<?xml version="1.0" encoding="utf-8"?>
<!-- Generator: Adobe Illustrator 25.2.1, SVG Export Plug-In . SVG Version: 6.00 Build 0)  -->
<svg version="1.1" id="Camada_1" xmlns="http://www.w3.org/2000/svg" xmlns:xlink="http://www.w3.org/1999/xlink" x="0px" y="0px"
	 viewBox="0 0 425.2 178.3" style="enable-background:new 0 0 425.2 178.3;" xml:space="preserve">
<style type="text/css">
	.st0{fill:#223A78;}
	.st1{fill:#E94E1B;}
	.st2{fill:#FFFFFF;}
	.st3{font-family:'Humanist777BT-RomanB';}
	.st4{font-size:18.1325px;}
</style>
<g>
	<rect x="-9.2" y="-5.2" class="st0" width="443" height="190.3"/>
	<g>
		<path class="st1" d="M379.1,61.1l1-13.4l-38.9,0c-6.4,0-11.7,5-12.2,11.6l-2.6,34c-0.4,4.7,3.4,9.2,8,9.2H376l1-13.9l-37,0
			c-2.6,0-4.6-2.3-4.4-4.9l1.4-18.5c0.2-2.4,2.1-4.2,4.4-4.2H379.1z"/>
		<path class="st2" d="M152.6,47.9h-34.8c-4.2,0-7.7,3.4-8,7.7l-0.3,5.7h42.3l-0.5,5.9h-42.3l-2.6,35l8.4,0.1l1.7-21.7h33.7
			l-1.6,21.7h8.4l3.5-45.5C161,52.1,157.3,47.9,152.6,47.9z"/>
		<g>
			<text transform="matrix(0.9848 0 0 1 43.9731 127.9828)" class="st2 st3 st4">ASSISTÊNCIA TÉCNICA ESPECIALIZADA</text>
			<g>
				<polygon class="st2" points="44,102.4 52.4,102.4 55.1,67.3 46.6,67.3 				"/>
				<path class="st2" d="M93.2,47.6L73,86.4L60.2,48l-12.1-0.1l-1,13.4h8.5l13.8,41c1.7,0.1,5,0,5,0S88.9,74.2,95,62.5l-3,39.9
					l8.4,0l4.1-54.8H93.2z"/>
			</g>
		</g>
		<polygon class="st1" points="271,47.7 223.6,47.7 222.7,61.1 241.4,61.1 238.2,102.1 246.7,102.1 249.8,61.1 270,61.1 		"/>
		<path class="st2" d="M216.6,61.3l1-13.4l-38.9,0c-6.4,0-11.7,5-12.2,11.6l-2.6,34c-0.4,4.7,3.4,9.2,8,9.2h41.5l1-13.9l-37,0
			c-2.6,0-4.6-2.3-4.4-4.9l1.4-18.5c0.2-2.4,2.1-4.2,4.4-4.2H216.6z"/>
		<g>
			<polygon class="st1" points="275.3,68.5 275.2,68.5 272.7,102.3 320.2,102.3 321.2,88.9 282.1,88.9 282.6,81.8 321.8,81.8 
				322.8,68.4 275.3,68.4 			"/>
			<polygon class="st1" points="277,47.7 277,47.7 276.7,47.7 275.7,61.1 323.3,61.1 324.3,47.7 			"/>
		</g>
	</g>
</g>
</svg>
